<svg width="133" height="40" viewBox="0 0 133 40" fill="none" xmlns="http://www.w3.org/2000/svg">
<path d="M40.1681 13.687L22.7617 0.67147C21.5651 -0.223823 19.8955 -0.223823 18.6989 0.67147L1.29251 13.687C0.477336 14.2951 0 15.2369 0 16.2356V36.7788C0 38.5567 1.48868 39.9989 3.32391 39.9989H20.7303V23.1361C20.7303 21.3582 22.219 19.916 24.0542 19.916H41.4607V16.2356C41.4607 15.2369 40.9833 14.2951 40.1681 13.687Z" fill="#00B66B"/>
<path d="M38.135 40C39.9702 40 41.4589 38.5578 41.4589 36.7799V19.9171L20.7286 40H38.135Z" fill="#00B66B"/>
<path d="M69.5053 8.56361C71.5803 8.56361 73.2586 9.1844 74.5097 10.4555C75.7913 11.6971 76.4321 13.3526 76.4321 15.3944C76.4321 17.4363 75.7913 19.0896 74.5097 20.3608C73.2586 21.6024 71.5803 22.2232 69.5053 22.2232H64.041V29.4383H58.8535V8.56361H69.5053ZM68.1321 18.2915C70.2377 18.2915 71.1226 17.4342 71.1226 15.3944C71.1226 13.3547 70.2377 12.4974 68.1321 12.4974H64.0432V18.2936H68.1321V18.2915Z" fill="#00B66B"/>
<path d="M89.1485 13.9763V18.3219H86.3717C84.3272 18.3219 83.2287 19.4748 83.2287 21.6032V29.4392H78.3768V14.1833H83.0151V18.115C83.7474 15.4249 85.5478 13.7399 87.747 13.7399C88.3246 13.7399 88.7823 13.8285 89.1485 13.9763Z" fill="#00B66B"/>
<path d="M98.5029 29.8828C95.9702 29.8828 93.9562 29.1437 92.3978 27.6657C90.8415 26.1876 90.0787 24.2365 90.0787 21.8104C90.0787 19.3842 90.8415 17.4353 92.3978 15.9551C93.954 14.4749 95.968 13.738 98.5029 13.738C101.038 13.738 103.05 14.477 104.608 15.9551C106.166 17.4332 106.927 19.3842 106.927 21.8104C106.927 24.2365 106.164 26.1855 104.608 27.6657C103.052 29.1437 101.036 29.8828 98.5029 29.8828ZM98.5029 26.2763C99.693 26.2763 100.547 25.9215 101.097 25.2121C101.646 24.5026 101.921 23.3792 101.921 21.8125C101.921 20.2457 101.646 19.1224 101.097 18.4129C100.547 17.7034 99.693 17.3487 98.5029 17.3487C97.3128 17.3487 96.4584 17.7034 95.9091 18.4129C95.3599 19.1224 95.0853 20.2457 95.0853 21.8125C95.0853 23.3792 95.3599 24.5026 95.9091 25.2121C96.4584 25.9215 97.3128 26.2763 98.5029 26.2763Z" fill="#00B66B"/>
<path d="M123.624 15.9568C124.845 17.4348 125.455 19.3859 125.455 21.8121C125.455 24.2382 124.845 26.1872 123.624 27.6673C122.434 29.1454 120.817 29.8845 118.833 29.8845C116.514 29.8845 114.622 28.702 113.613 26.6031V35.0894H108.761V14.1852H113.4V17.9395C114.345 15.2494 116.298 13.7417 118.833 13.7417C120.817 13.7396 122.434 14.4787 123.624 15.9568ZM117.033 17.3461C114.622 17.3461 113.615 18.6469 113.615 21.8099C113.615 24.9139 114.622 26.2737 117.033 26.2737C119.444 26.2737 120.451 24.9139 120.451 21.8099C120.451 18.6469 119.444 17.3461 117.033 17.3461Z" fill="#00B66B"/>
<path d="M127.945 14.184H132.796V29.442H127.945V14.184Z" fill="#00B66B"/>
<path d="M132.839 8.28351L130.657 6.65129C130.507 6.53938 130.297 6.53938 130.147 6.65129L127.965 8.28351C127.863 8.35953 127.804 8.47777 127.804 8.60235V11.1784C127.804 11.4023 127.991 11.5817 128.22 11.5817H130.402H132.584C132.815 11.5817 133 11.4001 133 11.1784V9.06478V8.60235C133.002 8.47777 132.941 8.35953 132.839 8.28351Z" fill="#00B66B"/>
</svg>
